<svg width="30" height="27" viewBox="0 0 30 27" fill="none" xmlns="http://www.w3.org/2000/svg">
<path d="M15 13.3941C12.9375 13.3941 11.1719 12.7431 9.70313 11.4411C8.23438 10.1391 7.5 8.57387 7.5 6.74551C7.5 4.91714 8.23438 3.35195 9.70313 2.04994C11.1719 0.747921 12.9375 0.0969124 15 0.0969124C17.0625 0.0969124 18.8281 0.747921 20.2969 2.04994C21.7656 3.35195 22.5 4.91714 22.5 6.74551C22.5 8.57387 21.7656 10.1391 20.2969 11.4411C18.8281 12.7431 17.0625 13.3941 15 13.3941ZM0 26.6913V22.0373C0 21.0954 0.27375 20.2294 0.82125 19.4393C1.3675 18.6504 2.09375 18.0481 3 17.6326C4.9375 16.7738 6.90625 16.1294 8.90625 15.6995C10.9063 15.2707 12.9375 15.0562 15 15.0562C17.0625 15.0562 19.0937 15.2707 21.0938 15.6995C23.0938 16.1294 25.0625 16.7738 27 17.6326C27.9062 18.0481 28.6325 18.6504 29.1788 19.4393C29.7263 20.2294 30 21.0954 30 22.0373V26.6913H0ZM3.75 23.367H26.25V22.0373C26.25 21.7325 26.1644 21.4555 25.9931 21.2062C25.8206 20.9569 25.5938 20.763 25.3125 20.6244C23.625 19.8765 21.9219 19.3152 20.2031 18.9407C18.4844 18.5673 16.75 18.3805 15 18.3805C13.25 18.3805 11.5156 18.5673 9.79688 18.9407C8.07813 19.3152 6.375 19.8765 4.6875 20.6244C4.40625 20.763 4.18 20.9569 4.00875 21.2062C3.83625 21.4555 3.75 21.7325 3.75 22.0373V23.367ZM15 10.0698C16.0313 10.0698 16.9144 9.74402 17.6494 9.09246C18.3831 8.442 18.75 7.65969 18.75 6.74551C18.75 5.83132 18.3831 5.04901 17.6494 4.39855C16.9144 3.74699 16.0313 3.42121 15 3.42121C13.9687 3.42121 13.0863 3.74699 12.3525 4.39855C11.6175 5.04901 11.25 5.83132 11.25 6.74551C11.25 7.65969 11.6175 8.442 12.3525 9.09246C13.0863 9.74402 13.9687 10.0698 15 10.0698Z" fill="#1C1B1F"/>
</svg>
