<svg width="30" height="27" viewBox="0 0 30 27" fill="none" xmlns="http://www.w3.org/2000/svg">
<path d="M27.6667 26.6913L17.1667 17.3833C16.3333 17.9742 15.375 18.4421 14.2917 18.7868C13.2083 19.1316 12.0556 19.304 10.8333 19.304C7.80556 19.304 5.24333 18.3746 3.14667 16.516C1.04889 14.6563 0 12.3845 0 9.70044C0 7.01637 1.04889 4.74453 3.14667 2.88489C5.24333 1.02624 7.80556 0.0969124 10.8333 0.0969124C13.8611 0.0969124 16.4239 1.02624 18.5217 2.88489C20.6183 4.74453 21.6667 7.01637 21.6667 9.70044C21.6667 10.7839 21.4722 11.8058 21.0833 12.7662C20.6944 13.7265 20.1667 14.5761 19.5 15.3148L30 24.6228L27.6667 26.6913ZM10.8333 16.349C12.9167 16.349 14.6878 15.7029 16.1467 14.4106C17.6044 13.1173 18.3333 11.5473 18.3333 9.70044C18.3333 7.8536 17.6044 6.28355 16.1467 4.99028C14.6878 3.69799 12.9167 3.05184 10.8333 3.05184C8.75 3.05184 6.97889 3.69799 5.52 4.99028C4.06222 6.28355 3.33333 7.8536 3.33333 9.70044C3.33333 11.5473 4.06222 13.1173 5.52 14.4106C6.97889 15.7029 8.75 16.349 10.8333 16.349Z" fill="#1C1B1F"/>
</svg>
