<svg width="30" height="27" viewBox="0 0 30 27" fill="none" xmlns="http://www.w3.org/2000/svg">
<path d="M3.75 26.8744C2.71875 26.8744 1.83625 26.6142 1.1025 26.0938C0.3675 25.5726 0 24.9463 0 24.2149V8.25832C0 7.52698 0.3675 6.90112 1.1025 6.38076C1.83625 5.85951 2.71875 5.59888 3.75 5.59888H7.5C7.5 4.13619 8.23437 2.88404 9.70312 1.84243C11.1719 0.800815 12.9375 0.280008 15 0.280008C17.0625 0.280008 18.8281 0.800815 20.2969 1.84243C21.7656 2.88404 22.5 4.13619 22.5 5.59888H26.25C27.2812 5.59888 28.1644 5.85951 28.8994 6.38076C29.6331 6.90112 30 7.52698 30 8.25832V24.2149C30 24.9463 29.6331 25.5726 28.8994 26.0938C28.1644 26.6142 27.2812 26.8744 26.25 26.8744H3.75ZM3.75 24.2149H26.25V8.25832H22.5V10.9178C22.5 11.2945 22.3206 11.6101 21.9619 11.8645C21.6019 12.1198 21.1562 12.2475 20.625 12.2475C20.0937 12.2475 19.6487 12.1198 19.29 11.8645C18.93 11.6101 18.75 11.2945 18.75 10.9178V8.25832H11.25V10.9178C11.25 11.2945 11.0706 11.6101 10.7119 11.8645C10.3519 12.1198 9.90625 12.2475 9.375 12.2475C8.84375 12.2475 8.39875 12.1198 8.04 11.8645C7.68 11.6101 7.5 11.2945 7.5 10.9178V8.25832H3.75V24.2149ZM11.25 5.59888H18.75C18.75 4.86754 18.3831 4.24168 17.6494 3.72132C16.9144 3.20007 16.0312 2.93945 15 2.93945C13.9687 2.93945 13.0862 3.20007 12.3525 3.72132C11.6175 4.24168 11.25 4.86754 11.25 5.59888Z" fill="#1C1B1F"/>
</svg>
